<svg xmlns="http://www.w3.org/2000/svg" xmlns:xlink="http://www.w3.org/1999/xlink" style="isolation:isolate" width="1024pt" height="1024pt" viewBox="0 0 1024 1024"><defs><clipPath id="_clipPath_7P90L9x9vza7OtR2O3dQL8fj7eawyM88"><rect width="1024" height="1024"/></clipPath></defs><g clip-path="url(#_clipPath_7P90L9x9vza7OtR2O3dQL8fj7eawyM88)"><clipPath id="_clipPath_cQXzeEVgDVqUhQXpY3ikf9WukEU4VDrW"><rect width="1024" height="1024" x="0" y="0" fill="#FFF" transform="matrix(1,0,0,1,0,0)"/></clipPath><g clip-path="url(#_clipPath_cQXzeEVgDVqUhQXpY3ikf9WukEU4VDrW)"><g><radialGradient id="_rgradient_0" cx=".5" cy=".5" r="1" fx=".5" fy=".5" gradientTransform="matrix(1024,0,0,1024,0,0)" gradientUnits="userSpaceOnUse"><stop offset="0%" stop-opacity="1" style="stop-color:#a1ceff"/><stop offset="100%" stop-opacity="1" style="stop-color:#566d82"/></radialGradient><circle cx="512" cy="512" r="512" fill="url(#_rgradient_0)" vector-effect="non-scaling-stroke"/><path fill="#000" d="M 953.25 637.23 C 948.22 623.079 941.513 610.364 932.92 599.29 C 934.596 583.088 935.435 566.682 935.435 550.275 C 935.435 472.344 916.572 395.643 880.732 328.171 C 894.145 314.431 897.08 292.692 886.39 275.875 C 801.716 142.572 660.871 63 509.755 63 C 358.64 63 217.795 142.777 132.911 276.08 C 122.012 293.307 124.737 314.636 138.57 328.376 C 102.939 395.643 84.076 472.344 84.076 550.07 C 84.076 567.092 85.124 584.114 86.801 600.93 C 79.046 611.595 72.548 623.695 67.728 637.025 C 54.943 673.53 56.2 714.956 71.5 753.717 C 86.801 792.477 114.047 824.06 148.63 842.927 C 169.799 854.412 192.015 860.154 214.022 860.154 C 225.34 860.154 236.658 858.514 247.557 855.437 C 253.426 859.744 260.342 862 267.678 862 C 271.66 862 275.852 861.385 279.624 859.744 L 317.56 845.388 C 325.944 842.312 332.441 836.16 336.004 828.161 C 339.567 820.163 339.777 811.345 336.633 803.141 L 234.772 543.302 C 228.087 526.507 208.84 518.096 191.596 524.435 L 153.66 538.791 C 142.761 542.892 135.216 552.121 132.911 562.99 C 125.156 566.682 117.82 570.988 111.113 576.116 C 110.694 567.502 110.275 558.684 110.275 550.07 C 110.275 476.651 128.09 404.257 161.625 340.681 C 164.559 341.296 167.493 341.707 170.427 341.707 C 185.099 341.707 198.722 334.529 206.896 322.429 C 276.69 218.042 390.079 155.902 509.755 155.902 C 629.432 155.902 742.611 218.042 812.614 322.224 C 822.364 336.91 840.423 344.109 857.886 340.271 C 891.63 403.847 909.236 476.446 909.236 549.865 C 909.236 558.068 909.026 566.477 908.607 574.885 C 902.319 570.168 895.403 566.066 888.277 562.785 C 885.971 551.916 878.426 542.687 867.527 538.585 L 829.591 524.23 C 812.405 517.667 793.122 526.281 786.416 543.097 L 684.345 803.141 C 677.638 819.958 686.441 838.826 703.627 845.388 L 741.563 859.744 C 745.545 861.18 749.528 862 753.51 862 C 760.636 862 767.762 859.744 773.631 855.437 C 784.529 858.514 795.847 860.154 807.165 860.154 C 829.172 860.154 851.389 854.412 872.557 842.927 C 907.14 824.265 934.387 792.682 949.687 753.717 C 964.778 715.161 966.035 673.735 953.25 637.23 L 953.25 637.23 L 953.25 637.23 Z M 162.882 562.785 L 200.818 548.429 C 204.591 546.994 208.783 548.84 210.04 552.531 L 312.111 812.575 C 312.74 814.421 312.74 816.267 311.901 817.907 C 311.063 819.548 309.596 820.984 307.919 821.599 L 269.983 835.955 C 267.049 836.98 263.905 836.16 261.809 833.904 C 260.971 832.878 260.132 832.263 259.084 831.648 L 157.433 573.039 C 157.642 572.014 158.062 570.783 157.852 569.553 C 158.271 566.477 160.158 563.811 162.882 562.785 L 162.882 562.785 L 162.882 562.785 Z M 150.726 583.498 L 247.138 828.777 C 220.101 838.826 189.71 835.955 161.415 820.573 C 132.282 804.782 109.017 777.916 96.023 744.693 C 83.028 711.47 81.77 676.401 92.669 645.433 C 102.939 615.696 123.689 593.753 150.726 583.498 L 150.726 583.498 L 150.726 583.498 Z M 848.874 316.071 C 843.005 316.071 837.556 313.2 834.412 308.483 C 759.588 197.124 638.235 130.472 509.755 130.472 C 381.066 130.472 259.713 197.124 184.889 308.688 C 181.686 313.443 176.248 316.296 170.427 316.276 C 167.074 316.276 163.721 315.251 160.996 313.405 L 160.367 312.995 C 156.524 310.554 153.832 306.715 152.888 302.328 C 151.944 297.941 152.826 293.366 155.337 289.616 C 235.191 163.695 367.862 88.635 509.755 88.635 C 651.649 88.635 784.11 163.695 864.174 289.411 C 869.204 297.409 866.899 307.868 858.934 312.79 L 858.305 313.2 C 855.371 315.046 852.227 316.071 848.874 316.071 L 848.874 316.071 L 848.874 316.071 Z M 750.785 835.955 L 712.849 821.599 C 711.064 820.954 709.617 819.638 708.829 817.943 C 708.042 816.248 707.98 814.315 708.657 812.575 L 810.728 552.531 C 811.387 550.784 812.732 549.368 814.465 548.598 C 816.197 547.827 818.172 547.767 819.95 548.429 L 857.886 562.785 C 860.611 563.811 862.497 566.477 862.497 569.553 C 862.497 570.783 862.707 572.014 862.916 573.039 L 761.265 831.648 C 760.217 832.263 759.378 833.083 758.54 834.109 C 756.863 836.365 753.719 837.185 750.785 835.955 L 750.785 835.955 L 750.785 835.955 Z M 924.955 744.693 C 911.961 777.916 888.696 804.782 859.563 820.573 C 831.268 835.955 800.877 838.826 773.84 828.777 L 870.252 583.498 C 897.289 593.753 917.829 615.901 928.309 645.638 C 939.207 676.401 937.95 711.675 924.955 744.693 Z"/><path fill="#000" d="M 512 310.921 C 401.112 310.921 310.905 401.121 310.905 512 C 310.905 622.879 401.112 713.079 512 713.079 C 622.888 713.079 713.095 622.879 713.095 512 C 713.205 401.121 622.888 310.921 512 310.921 L 512 310.921 L 512 310.921 Z M 631.689 517.83 L 457.986 632.229 C 455.855 633.552 453.191 633.676 450.945 632.559 C 448.745 631.349 447.315 629.039 447.315 626.509 L 447.315 397.711 C 447.315 395.181 448.745 392.871 450.945 391.661 C 453.146 390.451 455.896 390.561 457.986 391.991 L 631.689 506.39 C 633.669 507.71 634.769 509.8 634.769 512.11 C 634.769 514.31 633.559 516.51 631.689 517.83 Z M 461.066 613.64 L 615.408 512 L 461.066 410.36 L 461.066 613.64 L 461.066 613.64 Z M 512 277.591 C 382.52 277.591 277.572 382.531 277.572 512 C 277.572 641.469 382.52 746.409 512 746.409 C 641.48 746.409 746.428 641.469 746.428 512 C 746.428 382.531 641.48 277.591 512 277.591 Z M 512 724.189 C 395.061 724.189 299.904 629.039 299.904 512.11 C 299.904 395.181 395.061 300.031 512 300.031 C 628.939 300.031 724.096 395.181 724.096 512.11 C 724.206 629.039 629.049 724.189 512 724.189 Z"/></g></g></g></svg>